<?xml version="1.0" encoding="utf-8"?>
<!-- Generator: Adobe Illustrator 28.0.0, SVG Export Plug-In . SVG Version: 6.00 Build 0)  -->
<svg version="1.1" xmlns="http://www.w3.org/2000/svg" xmlns:xlink="http://www.w3.org/1999/xlink" x="0px" y="0px"
	 viewBox="0 0 595.28 841.89" style="enable-background:new 0 0 595.28 841.89;" xml:space="preserve">
<g id="レイヤー_1">
</g>
<g id="駒_x30FB_注釈">
	<g>
		<path d="M299.28,417.44c-0.17-0.19-0.4-0.34-0.71-0.46c-0.18-0.06-0.42-0.12-0.71-0.18c-0.29-0.06-0.61-0.11-0.95-0.13
			c-0.34-0.04-0.65-0.05-0.96-0.05c-0.19,0-0.38,0.02-0.58,0.04c-0.2,0.03-0.38,0.06-0.53,0.11c-0.11,0.04-0.19,0.08-0.23,0.13
			c-0.05,0.06-0.08,0.13-0.08,0.21c0,0.08,0.02,0.15,0.04,0.23c0.03,0.07,0.06,0.12,0.11,0.17c0.05,0.04,0.14,0.09,0.27,0.13
			c0.13,0.05,0.22,0.08,0.29,0.08c0.02,0,0.05-0.01,0.12-0.02c0.05-0.02,0.12-0.03,0.21-0.05c0.09-0.03,0.21-0.04,0.38-0.06
			c0.15-0.02,0.3-0.03,0.45-0.03c0.11,0,0.26,0.01,0.44,0.03c0.18,0.01,0.37,0.03,0.55,0.05c0.2,0.03,0.36,0.05,0.5,0.07
			c0.26,0.04,0.45,0.1,0.56,0.18c0.12,0.07,0.17,0.17,0.17,0.29c0,0.19-0.12,0.42-0.35,0.71c-0.12,0.16-0.3,0.31-0.5,0.46
			c-0.21,0.14-0.48,0.29-0.8,0.45c-0.37,0.17-0.68,0.29-0.95,0.38c-0.27,0.08-0.51,0.13-0.72,0.14c-0.13,0.01-0.24,0.03-0.31,0.04
			c-0.07,0.02-0.12,0.05-0.16,0.09c-0.05,0.05-0.09,0.12-0.12,0.18c-0.03,0.07-0.04,0.13-0.04,0.21c0,0.12,0.03,0.21,0.09,0.3
			c0.06,0.08,0.15,0.14,0.27,0.19c0.07,0.03,0.14,0.05,0.22,0.07c0.08,0.02,0.2,0.04,0.36,0.06c0.03-0.08,0.06-0.13,0.12-0.17
			c0.04-0.04,0.13-0.07,0.24-0.12c0.21-0.08,0.41-0.15,0.61-0.23c0.2-0.07,0.37-0.14,0.51-0.21l0.3,0.9
			c0.04,0.13,0.06,0.27,0.08,0.4c0.03,0.13,0.03,0.24,0.03,0.33c0,0.16,0.02,0.28,0.06,0.35c0.04,0.07,0.13,0.12,0.26,0.15
			c0.09,0.03,0.2,0.05,0.32,0.06c0.12,0.02,0.22,0.03,0.32,0.03c0.04,0,0.1-0.01,0.16-0.02c0.06-0.01,0.14-0.03,0.23-0.05v-0.12
			c-0.14-0.12-0.23-0.23-0.28-0.31c-0.05-0.09-0.1-0.25-0.14-0.47c-0.01-0.05-0.02-0.08-0.03-0.11c-0.01-0.04-0.01-0.05-0.02-0.07
			c-0.01-0.04-0.04-0.14-0.09-0.29l-0.38-1.23c0.3-0.21,0.55-0.38,0.71-0.53c0.17-0.14,0.31-0.29,0.44-0.46
			c0.15-0.2,0.26-0.4,0.34-0.61c0.08-0.21,0.12-0.41,0.12-0.6C299.52,417.87,299.44,417.64,299.28,417.44z"/>
	</g>
</g>
</svg>
